<svg xmlns="http://www.w3.org/2000/svg" xmlns:xlink="http://www.w3.org/1999/xlink" version="1.1" class="marks" width="990" height="445" viewBox="0 0 990 445"><rect width="990" height="445" fill="#ffffff"/><g fill="none" stroke-miterlimit="10" transform="translate(15,46)"><g class="mark-group role-frame root" role="graphics-object" aria-roledescription="group mark container"><g transform="translate(0,0)"><path class="background" aria-hidden="true" d="M0,0h960v364h-960Z"/><g><g class="mark-group role-axis" role="graphics-symbol" aria-roledescription="axis" aria-label="X-axis for a discrete scale with 32 values: 1994, 1995, 1996, 1997, 1998, ending with 2025"><g transform="translate(0.5,364.5)"><path class="background" aria-hidden="true" d="M0,0h0v0h0Z" pointer-events="none"/><g><g class="mark-rule role-axis-grid" pointer-events="none"><line transform="translate(30,0)" x2="0" y2="-364" stroke="#f0f0f0" stroke-width="1" stroke-dasharray="2,2" opacity="1"/><line transform="translate(60,0)" x2="0" y2="-364" stroke="#f0f0f0" stroke-width="1" stroke-dasharray="2,2" opacity="1"/><line transform="translate(90,0)" x2="0" y2="-364" stroke="#f0f0f0" stroke-width="1" stroke-dasharray="2,2" opacity="1"/><line transform="translate(120,0)" x2="0" y2="-364" stroke="#f0f0f0" stroke-width="1" stroke-dasharray="2,2" opacity="1"/><line transform="translate(150,0)" x2="0" y2="-364" stroke="#f0f0f0" stroke-width="1" stroke-dasharray="2,2" opacity="1"/><line transform="translate(180,0)" x2="0" y2="-364" stroke="#f0f0f0" stroke-width="1" stroke-dasharray="2,2" opacity="1"/><line transform="translate(210,0)" x2="0" y2="-364" stroke="#f0f0f0" stroke-width="1" stroke-dasharray="2,2" opacity="1"/><line transform="translate(240,0)" x2="0" y2="-364" stroke="#f0f0f0" stroke-width="1" stroke-dasharray="2,2" opacity="1"/><line transform="translate(270,0)" x2="0" y2="-364" stroke="#f0f0f0" stroke-width="1" stroke-dasharray="2,2" opacity="1"/><line transform="translate(300,0)" x2="0" y2="-364" stroke="#f0f0f0" stroke-width="1" stroke-dasharray="2,2" opacity="1"/><line transform="translate(330,0)" x2="0" y2="-364" stroke="#f0f0f0" stroke-width="1" stroke-dasharray="2,2" opacity="1"/><line transform="translate(360,0)" x2="0" y2="-364" stroke="#f0f0f0" stroke-width="1" stroke-dasharray="2,2" opacity="1"/><line transform="translate(390,0)" x2="0" y2="-364" stroke="#f0f0f0" stroke-width="1" stroke-dasharray="2,2" opacity="1"/><line transform="translate(420,0)" x2="0" y2="-364" stroke="#f0f0f0" stroke-width="1" stroke-dasharray="2,2" opacity="1"/><line transform="translate(450,0)" x2="0" y2="-364" stroke="#f0f0f0" stroke-width="1" stroke-dasharray="2,2" opacity="1"/><line transform="translate(480,0)" x2="0" y2="-364" stroke="#f0f0f0" stroke-width="1" stroke-dasharray="2,2" opacity="1"/><line transform="translate(510,0)" x2="0" y2="-364" stroke="#f0f0f0" stroke-width="1" stroke-dasharray="2,2" opacity="1"/><line transform="translate(540,0)" x2="0" y2="-364" stroke="#f0f0f0" stroke-width="1" stroke-dasharray="2,2" opacity="1"/><line transform="translate(570,0)" x2="0" y2="-364" stroke="#f0f0f0" stroke-width="1" stroke-dasharray="2,2" opacity="1"/><line transform="translate(600,0)" x2="0" y2="-364" stroke="#f0f0f0" stroke-width="1" stroke-dasharray="2,2" opacity="1"/><line transform="translate(630,0)" x2="0" y2="-364" stroke="#f0f0f0" stroke-width="1" stroke-dasharray="2,2" opacity="1"/><line transform="translate(660,0)" x2="0" y2="-364" stroke="#f0f0f0" stroke-width="1" stroke-dasharray="2,2" opacity="1"/><line transform="translate(690,0)" x2="0" y2="-364" stroke="#f0f0f0" stroke-width="1" stroke-dasharray="2,2" opacity="1"/><line transform="translate(720,0)" x2="0" y2="-364" stroke="#f0f0f0" stroke-width="1" stroke-dasharray="2,2" opacity="1"/><line transform="translate(750,0)" x2="0" y2="-364" stroke="#f0f0f0" stroke-width="1" stroke-dasharray="2,2" opacity="1"/><line transform="translate(780,0)" x2="0" y2="-364" stroke="#f0f0f0" stroke-width="1" stroke-dasharray="2,2" opacity="1"/><line transform="translate(810,0)" x2="0" y2="-364" stroke="#f0f0f0" stroke-width="1" stroke-dasharray="2,2" opacity="1"/><line transform="translate(840,0)" x2="0" y2="-364" stroke="#f0f0f0" stroke-width="1" stroke-dasharray="2,2" opacity="1"/><line transform="translate(870,0)" x2="0" y2="-364" stroke="#f0f0f0" stroke-width="1" stroke-dasharray="2,2" opacity="1"/><line transform="translate(900,0)" x2="0" y2="-364" stroke="#f0f0f0" stroke-width="1" stroke-dasharray="2,2" opacity="1"/><line transform="translate(930,0)" x2="0" y2="-364" stroke="#f0f0f0" stroke-width="1" stroke-dasharray="2,2" opacity="1"/><line transform="translate(960,0)" x2="0" y2="-364" stroke="#f0f0f0" stroke-width="1" stroke-dasharray="2,2" opacity="1"/><line transform="translate(0,0)" x2="0" y2="-364" stroke="#f0f0f0" stroke-width="1" stroke-dasharray="2,2" opacity="1"/></g><g class="mark-text role-axis-label" pointer-events="none"><text text-anchor="middle" transform="translate(15,18)" font-family="sans-serif" font-size="10px" fill="#c0c0c0" opacity="1">1994</text><text text-anchor="middle" transform="translate(45,18)" font-family="sans-serif" font-size="10px" fill="#c0c0c0" opacity="1">1995</text><text text-anchor="middle" transform="translate(75,18)" font-family="sans-serif" font-size="10px" fill="#c0c0c0" opacity="1">1996</text><text text-anchor="middle" transform="translate(105,18)" font-family="sans-serif" font-size="10px" fill="#c0c0c0" opacity="1">1997</text><text text-anchor="middle" transform="translate(135,18)" font-family="sans-serif" font-size="10px" fill="#c0c0c0" opacity="1">1998</text><text text-anchor="middle" transform="translate(165,18)" font-family="sans-serif" font-size="10px" fill="#c0c0c0" opacity="1">1999</text><text text-anchor="middle" transform="translate(195,18)" font-family="sans-serif" font-size="10px" fill="#c0c0c0" opacity="1">2000</text><text text-anchor="middle" transform="translate(225,18)" font-family="sans-serif" font-size="10px" fill="#c0c0c0" opacity="1">2001</text><text text-anchor="middle" transform="translate(255,18)" font-family="sans-serif" font-size="10px" fill="#c0c0c0" opacity="1">2002</text><text text-anchor="middle" transform="translate(285,18)" font-family="sans-serif" font-size="10px" fill="#c0c0c0" opacity="1">2003</text><text text-anchor="middle" transform="translate(315,18)" font-family="sans-serif" font-size="10px" fill="#c0c0c0" opacity="1">2004</text><text text-anchor="middle" transform="translate(345,18)" font-family="sans-serif" font-size="10px" fill="#c0c0c0" opacity="1">2005</text><text text-anchor="middle" transform="translate(375,18)" font-family="sans-serif" font-size="10px" fill="#c0c0c0" opacity="1">2006</text><text text-anchor="middle" transform="translate(405,18)" font-family="sans-serif" font-size="10px" fill="#c0c0c0" opacity="1">2007</text><text text-anchor="middle" transform="translate(435,18)" font-family="sans-serif" font-size="10px" fill="#c0c0c0" opacity="1">2008</text><text text-anchor="middle" transform="translate(465,18)" font-family="sans-serif" font-size="10px" fill="#c0c0c0" opacity="1">2009</text><text text-anchor="middle" transform="translate(495,18)" font-family="sans-serif" font-size="10px" fill="#c0c0c0" opacity="1">2010</text><text text-anchor="middle" transform="translate(525,18)" font-family="sans-serif" font-size="10px" fill="#c0c0c0" opacity="1">2011</text><text text-anchor="middle" transform="translate(555,18)" font-family="sans-serif" font-size="10px" fill="#c0c0c0" opacity="1">2012</text><text text-anchor="middle" transform="translate(585,18)" font-family="sans-serif" font-size="10px" fill="#c0c0c0" opacity="1">2013</text><text text-anchor="middle" transform="translate(615,18)" font-family="sans-serif" font-size="10px" fill="#c0c0c0" opacity="1">2014</text><text text-anchor="middle" transform="translate(645,18)" font-family="sans-serif" font-size="10px" fill="#c0c0c0" opacity="1">2015</text><text text-anchor="middle" transform="translate(675,18)" font-family="sans-serif" font-size="10px" fill="#c0c0c0" opacity="1">2016</text><text text-anchor="middle" transform="translate(705,18)" font-family="sans-serif" font-size="10px" fill="#c0c0c0" opacity="1">2017</text><text text-anchor="middle" transform="translate(735,18)" font-family="sans-serif" font-size="10px" fill="#c0c0c0" opacity="1">2018</text><text text-anchor="middle" transform="translate(765,18)" font-family="sans-serif" font-size="10px" fill="#c0c0c0" opacity="1">2019</text><text text-anchor="middle" transform="translate(795,18)" font-family="sans-serif" font-size="10px" fill="#c0c0c0" opacity="1">2020</text><text text-anchor="middle" transform="translate(825,18)" font-family="sans-serif" font-size="10px" fill="#c0c0c0" opacity="1">2021</text><text text-anchor="middle" transform="translate(855,18)" font-family="sans-serif" font-size="10px" fill="#c0c0c0" opacity="1">2022</text><text text-anchor="middle" transform="translate(885,18)" font-family="sans-serif" font-size="10px" fill="#c0c0c0" opacity="1">2023</text><text text-anchor="middle" transform="translate(915,18)" font-family="sans-serif" font-size="10px" fill="#c0c0c0" opacity="1">2024</text><text text-anchor="middle" transform="translate(945,18)" font-family="sans-serif" font-size="10px" fill="#c0c0c0" opacity="1">2025</text><text text-anchor="middle" transform="translate(0,18)" font-family="sans-serif" font-size="10px" fill="#c0c0c0" opacity="1"/></g></g><path class="foreground" aria-hidden="true" d="" pointer-events="none" display="none"/></g></g><g class="mark-rect role-mark" role="graphics-symbol" aria-roledescription="rect mark container"><path d="M6,341L114,341C117.311490146964,341,120,343.688509853036,120,347L120,355C120,358.311490146964,117.311490146964,361,114,361L6,361C2.688509853036,361,0,358.311490146964,0,355L0,347C0,343.688509853036,2.688509853036,341,6,341Z" fill="#4c78a8"/><path d="M96,315L264,315C267.311490146964,315,270,317.688509853036,270,321L270,329C270,332.311490146964,267.311490146964,335,264,335L96,335C92.688509853036,335,90,332.311490146964,90,329L90,321C90,317.688509853036,92.688509853036,315,96,315Z" fill="#4c78a8"/><path d="M96,289L264,289C267.311490146964,289,270,291.688509853036,270,295L270,303C270,306.311490146964,267.311490146964,309,264,309L96,309C92.688509853036,309,90,306.311490146964,90,303L90,295C90,291.688509853036,92.688509853036,289,96,289Z" fill="#4c78a8"/><path d="M156,263L954,263C957.311490146964,263,960,265.688509853036,960,269L960,277C960,280.311490146964,957.311490146964,283,954,283L156,283C152.688509853036,283,150,280.311490146964,150,277L150,269C150,265.688509853036,152.688509853036,263,156,263Z" fill="#4c78a8"/><path d="M186,237L564,237C567.311490146964,237,570,239.688509853036,570,243L570,251C570,254.311490146964,567.311490146964,257,564,257L186,257C182.688509853036,257,180,254.311490146964,180,251L180,243C180,239.688509853036,182.688509853036,237,186,237Z" fill="#4c78a8"/><path d="M246,211L474,211C477.311490146964,211,480,213.688509853036,480,217L480,225C480,228.311490146964,477.311490146964,231,474,231L246,231C242.688509853036,231,240,228.311490146964,240,225L240,217C240,213.688509853036,242.688509853036,211,246,211Z" fill="#4c78a8"/><path d="M306,185L384,185C387.311490146964,185,390,187.688509853036,390,191L390,199C390,202.311490146964,387.311490146964,205,384,205L306,205C302.688509853036,205,300,202.311490146964,300,199L300,191C300,187.688509853036,302.688509853036,185,306,185Z" fill="#4c78a8"/><path d="M366,159L624,159C627.311490146964,159,630,161.688509853036,630,165L630,173C630,176.311490146964,627.311490146964,179,624,179L366,179C362.688509853036,179,360,176.311490146964,360,173L360,165C360,161.688509853036,362.688509853036,159,366,159Z" fill="#4c78a8"/><path d="M936,159L954,159C957.311490146964,159,960,161.688509853036,960,165L960,173C960,176.311490146964,957.311490146964,179,954,179L936,179C932.688509853036,179,930,176.311490146964,930,173L930,165C930,161.688509853036,932.688509853036,159,936,159Z" fill="#4c78a8"/><path d="M456,133L474,133C477.311490146964,133,480,135.688509853036,480,139L480,147C480,150.311490146964,477.311490146964,153,474,153L456,153C452.688509853036,153,450,150.311490146964,450,147L450,139C450,135.688509853036,452.688509853036,133,456,133Z" fill="#4c78a8"/><path d="M546,107L624,107C627.311490146964,107,630,109.688509853036,630,113L630,121C630,124.311490146964,627.311490146964,127,624,127L546,127C542.688509853036,127,540,124.311490146964,540,121L540,113C540,109.688509853036,542.688509853036,107,546,107Z" fill="#4c78a8"/><path d="M696,81L894,81C897.311490146964,81,900,83.688509853036,900,87L900,95C900,98.311490146964,897.311490146964,101,894,101L696,101C692.688509853036,101,690,98.311490146964,690,95L690,87C690,83.688509853036,692.688509853036,81,696,81Z" fill="#4c78a8"/><path d="M936,81L954,81C957.311490146964,81,960,83.688509853036,960,87L960,95C960,98.311490146964,957.311490146964,101,954,101L936,101C932.688509853036,101,930,98.311490146964,930,95L930,87C930,83.688509853036,932.688509853036,81,936,81Z" fill="#4c78a8"/><path d="M696,55L894,55C897.311490146964,55,900,57.688509853036,900,61L900,69C900,72.311490146964,897.311490146964,75,894,75L696,75C692.688509853036,75,690,72.311490146964,690,69L690,61C690,57.688509853036,692.688509853036,55,696,55Z" fill="#4c78a8"/><path d="M936,55L954,55C957.311490146964,55,960,57.688509853036,960,61L960,69C960,72.311490146964,957.311490146964,75,954,75L936,75C932.688509853036,75,930,72.311490146964,930,69L930,61C930,57.688509853036,932.688509853036,55,936,55Z" fill="#4c78a8"/><path d="M906,29L924,29C927.311490146964,29,930,31.688509853036,930,35L930,43C930,46.311490146964,927.311490146964,49,924,49L906,49C902.688509853036,49,900,46.311490146964,900,43L900,35C900,31.688509853036,902.688509853036,29,906,29Z" fill="#4c78a8"/><path d="M906,3L954,3C957.311490146964,3,960,5.688509853036,960,9L960,17C960,20.311490146964,957.311490146964,23,954,23L906,23C902.688509853036,23,900,20.311490146964,900,17L900,9C900,5.688509853036,902.688509853036,3,906,3Z" fill="#4c78a8"/></g><g class="mark-text role-mark" role="graphics-object" aria-roledescription="text mark container"><text text-anchor="start" transform="translate(6,354)" font-family="sans-serif" font-size="11px" fill="#ffffff">QBasic</text><text text-anchor="start" transform="translate(96,328)" font-family="sans-serif" font-size="11px" fill="#ffffff">Turbo Pascal</text><text text-anchor="start" transform="translate(96,302)" font-family="sans-serif" font-size="11px" fill="#ffffff">Delphi</text><text text-anchor="start" transform="translate(156,276)" font-family="sans-serif" font-size="11px" fill="#ffffff">JavaScript</text><text text-anchor="start" transform="translate(186,250)" font-family="sans-serif" font-size="11px" fill="#ffffff">PHP</text><text text-anchor="start" transform="translate(246,224)" font-family="sans-serif" font-size="11px" fill="#ffffff">C/C++</text><text text-anchor="start" transform="translate(306,198)" font-family="sans-serif" font-size="11px" fill="#ffffff">Java</text><text text-anchor="start" transform="translate(366,172)" font-family="sans-serif" font-size="11px" fill="#ffffff">Ruby</text><text text-anchor="end" transform="translate(924,172)" font-family="sans-serif" font-size="11px" fill="#404040"/><text text-anchor="end" transform="translate(444,146)" font-family="sans-serif" font-size="11px" fill="#404040">Scheme</text><text text-anchor="start" transform="translate(546,120)" font-family="sans-serif" font-size="11px" fill="#ffffff">CofeeScript</text><text text-anchor="start" transform="translate(696,94)" font-family="sans-serif" font-size="11px" fill="#ffffff">Python</text><text text-anchor="end" transform="translate(924,94)" font-family="sans-serif" font-size="11px" fill="#404040"/><text text-anchor="start" transform="translate(696,68)" font-family="sans-serif" font-size="11px" fill="#ffffff">Go</text><text text-anchor="end" transform="translate(924,68)" font-family="sans-serif" font-size="11px" fill="#404040"/><text text-anchor="end" transform="translate(894,42)" font-family="sans-serif" font-size="11px" fill="#404040">TypeScript</text><text text-anchor="start" transform="translate(906,16)" font-family="sans-serif" font-size="11px" fill="#ffffff">Rust</text></g><g class="mark-rect role-mark" role="graphics-symbol" aria-roledescription="rect mark container"><path d="M630,167h300v4h-300Z" fill="#dbe4ed"/><path d="M900,89h30v4h-30Z" fill="#dbe4ed"/><path d="M900,63h30v4h-30Z" fill="#dbe4ed"/></g><g class="mark-group role-title"><g transform="translate(480,-31)"><path class="background" aria-hidden="true" d="M0,0h0v0h0Z" pointer-events="none"/><g><g class="mark-text role-title-text" role="graphics-symbol" aria-roledescription="title" aria-label="Title text 'My Programming Languages Timeline'" pointer-events="none"><text text-anchor="middle" transform="translate(0,13)" font-family="sans-serif" font-size="16px" font-weight="bold" fill="#404040" opacity="1">My Programming Languages Timeline</text></g></g><path class="foreground" aria-hidden="true" d="" pointer-events="none" display="none"/></g></g></g><path class="foreground" aria-hidden="true" d="" display="none"/></g></g></g></svg>